<?xml version="1.0" standalone="no"?>
<!DOCTYPE svg PUBLIC "-//W3C//DTD SVG 20010904//EN"
 "http://www.w3.org/TR/2001/REC-SVG-20010904/DTD/svg10.dtd">
<svg version="1.0" xmlns="http://www.w3.org/2000/svg"
 width="512.000000pt" height="512.000000pt" viewBox="0 0 512.000000 512.000000"
 preserveAspectRatio="xMidYMid meet">

<g transform="translate(0.000000,512.000000) scale(0.100000,-0.100000)"
fill="#000000" stroke="none">
<path d="M837 5105 c-402 -76 -710 -367 -810 -765 -30 -121 -30 -339 0 -460
48 -189 135 -343 272 -481 158 -157 336 -249 554 -284 251 -41 499 14 724 161
74 49 218 193 267 267 84 130 137 264 161 409 19 117 19 199 0 315 -35 218
-127 396 -284 554 -137 136 -293 225 -476 270 -108 27 -304 34 -408 14z"/>
<path d="M3985 5114 c-235 -37 -425 -133 -586 -293 -157 -158 -249 -336 -284
-554 -41 -251 14 -499 161 -724 49 -74 193 -218 267 -267 130 -84 264 -137
409 -161 117 -19 199 -19 315 0 218 35 396 127 554 284 137 138 224 292 272
481 30 121 30 339 0 460 -48 192 -133 341 -272 481 -193 192 -410 286 -681
294 -69 2 -138 1 -155 -1z m254 -449 c208 -49 377 -218 426 -426 45 -194 -11
-385 -155 -529 -227 -226 -575 -227 -801 -1 -226 226 -225 574 1 801 144 144
335 200 529 155z"/>
<path d="M846 2005 c-211 -36 -391 -129 -547 -284 -137 -138 -224 -292 -272
-481 -30 -121 -30 -339 0 -460 48 -192 133 -341 272 -481 140 -139 289 -224
481 -272 121 -30 339 -30 460 0 189 48 343 135 481 272 157 158 249 336 284
554 41 251 -14 499 -161 724 -49 74 -193 218 -267 267 -224 146 -480 203 -731
161z m292 -440 c254 -60 442 -295 442 -555 0 -260 -186 -495 -441 -555 -194
-45 -385 10 -529 155 -228 228 -228 572 0 800 144 144 336 200 528 155z"/>
<path d="M3945 2005 c-210 -36 -391 -130 -545 -285 -158 -157 -250 -335 -285
-552 -19 -117 -19 -199 0 -315 35 -218 127 -396 284 -554 138 -137 292 -224
481 -272 121 -30 339 -30 460 0 192 48 341 133 481 272 139 140 224 289 272
481 30 121 30 339 0 460 -28 110 -80 230 -139 322 -61 92 -198 230 -289 290
-215 139 -473 194 -720 153z"/>
</g>
</svg>
