<svg version="1.1" id="Layer_1" xmlns="http://www.w3.org/2000/svg" xmlns:xlink="http://www.w3.org/1999/xlink" x="0px" y="0px"
	 width="100%" viewBox="0 0 512 512" enable-background="new 0 0 512 512" xml:space="preserve">
<path fill="#000000" opacity="1.000000" stroke="none" 
	d="
M513.000000,283.000000 
	C513.000000,359.650055 513.000000,436.300140 513.000000,512.975098 
	C342.386871,512.975098 171.773727,512.975098 1.080294,512.975098 
	C1.080294,342.423828 1.080294,171.847610 1.080294,1.135698 
	C171.666595,1.135698 342.333282,1.135698 513.000000,1.135698 
	C513.000000,74.768448 513.000000,148.419220 512.744751,222.275665 
	C510.768768,220.500824 510.206238,217.947891 509.860901,215.566208 
	C506.762909,194.202057 500.443787,173.796082 491.815308,154.076584 
	C478.669067,124.032272 460.303375,97.638443 436.873169,74.630699 
	C420.135895,58.195244 401.571777,44.401466 381.184326,32.882576 
	C360.607330,21.256632 338.747986,13.083682 315.785034,7.759353 
	C311.573242,6.782786 308.078094,9.427198 309.292664,13.301923 
	C311.383972,19.973551 311.986664,27.433725 317.734619,32.628128 
	C324.055084,38.339874 330.007843,44.332947 332.025848,53.128357 
	C334.325745,63.152317 340.143250,71.085464 346.767242,78.779030 
	C360.133179,94.303116 369.308807,112.340118 376.490784,131.422913 
	C377.708099,134.657318 379.700195,137.273758 382.252350,139.455490 
	C389.641785,145.772537 393.963165,154.416199 396.507050,163.135803 
	C399.750519,174.253479 406.605682,182.344574 413.460876,190.930908 
	C419.827026,198.904755 426.106262,206.803528 427.359833,217.938904 
	C428.585327,228.824387 427.810486,239.592010 427.426575,250.325928 
	C427.099579,259.466766 429.220001,267.472656 433.356445,275.179047 
	C441.381805,290.130554 448.432251,304.992188 444.088043,322.962036 
	C441.119019,335.243317 440.139618,348.035614 430.276031,357.492249 
	C428.593292,359.105560 427.554993,361.336792 427.066681,363.639069 
	C425.506775,370.993408 419.510712,374.271423 414.034088,378.020111 
	C412.241882,379.246857 411.055817,378.188263 409.842438,376.760162 
	C399.792938,364.932129 388.147797,354.663849 377.303558,343.611084 
	C374.083527,340.329102 370.087433,339.465454 365.794189,340.678772 
	C363.638672,341.287933 361.896088,341.318542 360.325775,339.668640 
	C358.160278,337.393341 356.430847,338.085632 354.487549,340.149780 
	C350.263000,344.636993 345.959473,349.060974 341.492249,353.304504 
	C338.859955,355.804932 336.487152,357.966003 340.384979,361.268585 
	C341.347076,362.083740 341.518616,363.362885 341.083893,364.514252 
	C338.614288,371.054810 341.660126,375.613190 346.164642,379.954620 
	C356.937073,390.337128 366.989594,401.449646 378.893188,412.082794 
	C371.473907,416.295319 368.485809,423.673096 364.204742,430.126160 
	C362.036743,433.394135 358.476898,435.203888 354.695618,436.233917 
	C334.308014,441.787628 315.804749,451.816559 296.831299,460.692200 
	C288.047546,464.801147 283.050903,472.112579 282.187286,481.858246 
	C281.776215,486.497070 282.063995,491.179993 282.794128,495.814819 
	C284.721344,508.048248 290.021606,511.614166 302.271484,509.256775 
	C310.581879,507.657440 318.825226,505.871368 327.006592,503.670471 
	C346.894714,498.320282 365.756409,490.361359 383.503510,480.149994 
	C412.561005,463.430786 437.735168,442.035645 458.544373,415.520172 
	C481.066956,386.821533 496.955627,354.958130 505.615662,319.568970 
	C508.569092,307.499695 510.566040,295.196381 513.000000,283.000000 
M214.901443,26.171230 
	C214.516068,22.366056 214.338470,18.525400 213.696167,14.764102 
	C212.755646,9.256532 208.841446,6.384662 203.350418,6.914563 
	C201.371780,7.105508 199.400711,7.489493 197.458908,7.929727 
	C174.286819,13.183172 152.429993,21.813232 131.746429,33.485245 
	C102.141190,50.191887 76.807266,71.905258 55.739090,98.544701 
	C26.057013,136.075912 8.543394,178.701324 2.749185,226.179291 
	C2.076282,231.693115 4.629052,236.016006 10.048531,237.705353 
	C14.398945,239.061462 18.836357,239.268158 23.386524,238.597702 
	C37.155678,236.568893 47.869595,228.524200 58.598843,220.653152 
	C61.876682,218.248489 65.967766,216.440582 67.758217,212.373474 
	C70.437592,206.287125 74.341866,200.766296 76.077057,194.245880 
	C77.338509,189.505630 80.296837,186.424744 85.080193,185.125107 
	C92.387611,183.139725 98.357925,179.166550 103.036018,173.177109 
	C106.109322,169.242294 109.542587,165.580597 112.500381,161.565094 
	C122.045509,148.606598 132.609177,136.690430 146.348251,128.002701 
	C157.451309,120.981827 168.608566,114.043343 179.840179,107.230537 
	C185.157181,104.005394 189.678619,99.769020 191.735413,94.133972 
	C196.630905,80.721519 202.777710,67.632553 204.433838,53.218460 
	C205.055710,47.805866 206.781219,42.895699 209.534012,38.219807 
	C211.628784,34.661606 214.288116,31.322330 214.901443,26.171230 
M119.143806,307.407013 
	C148.733276,362.904602 208.270859,391.413849 269.818085,379.848755 
	C341.883698,366.307190 393.930511,295.453491 380.410400,218.492981 
	C367.734100,146.335587 300.411224,96.109245 228.450089,104.181160 
	C190.334457,108.456604 158.244263,124.737663 134.805405,154.866135 
	C98.338814,201.740524 93.320000,252.880173 119.143806,307.407013 
M80.711868,364.883789 
	C69.655785,357.412506 60.060768,348.834991 56.418530,335.198364 
	C53.132256,322.894501 48.384132,311.160858 40.459290,301.023407 
	C33.484715,292.101532 25.656845,284.837463 12.897999,289.609406 
	C12.017104,289.938843 10.922838,289.758759 9.931369,289.721283 
	C4.968342,289.533752 3.123284,291.291077 3.811503,296.140137 
	C4.579881,301.553986 5.478040,306.968414 6.696043,312.296539 
	C19.440165,368.045380 47.421490,414.597046 90.839233,451.909241 
	C116.115677,473.631226 144.521927,489.700287 176.115280,500.189606 
	C189.193100,504.531586 202.417496,508.375732 216.217651,509.529144 
	C223.557358,510.142609 229.160202,506.292816 231.626221,499.384399 
	C236.406052,485.993896 233.826981,473.702209 225.232513,462.741241 
	C215.138641,449.867950 200.950348,442.792236 186.374619,436.404297 
	C173.760956,430.876251 162.325150,423.689850 152.427277,413.937012 
	C145.464096,407.075928 137.604004,401.163849 132.574112,392.463379 
	C130.847000,389.475952 127.776291,387.441284 125.059532,385.214813 
	C121.073669,381.948303 116.742050,378.762238 114.984329,373.701660 
	C113.394081,369.123260 110.563614,367.882233 106.158508,368.797424 
	C97.480431,370.600311 89.294418,368.843140 80.711868,364.883789 
z"/>
<path fill="#000000" opacity="1.000000" stroke="none" 
	d="
M513.000000,272.531342 
	C503.300354,268.560791 500.752350,258.593506 507.214142,250.257095 
	C508.821075,248.184006 510.227234,245.916275 512.738647,244.208618 
	C513.000000,253.354233 513.000000,262.708466 513.000000,272.531342 
z"/>
<path fill="#000000" opacity="1.000000" stroke="none" 
	d="
M464.509064,262.634247 
	C462.874603,260.801086 462.891815,259.190735 464.879150,258.071442 
	C465.834534,257.533325 466.925049,258.105591 467.199097,259.148987 
	C467.723877,261.146545 467.286804,262.718903 464.509064,262.634247 
z"/>
<path fill="#000000" opacity="1.000000" stroke="none" 
	d="
M351.555817,194.626907 
	C381.325409,264.003021 343.436554,341.108429 270.183807,358.619263 
	C200.102005,375.372101 135.691849,327.395782 125.514893,261.000366 
	C115.921379,198.411423 156.881317,143.230804 211.192474,128.312790 
	C267.726624,112.784142 326.155853,140.000504 351.555817,194.626907 
M145.448181,190.855698 
	C134.269272,212.318207 130.015656,235.057480 133.524704,259.023193 
	C142.737732,321.945496 203.101151,364.116333 265.430176,351.341095 
	C323.488556,339.441132 361.878143,282.974854 351.752563,224.371567 
	C341.463165,164.820435 285.960266,124.252617 226.739227,133.615952 
	C190.798706,139.298447 163.773209,158.459030 145.448181,190.855698 
z"/>
<path fill="#000000" opacity="1.000000" stroke="none" 
	d="
M243.987854,307.368500 
	C201.194946,306.683197 169.059174,288.080750 146.088074,252.735947 
	C141.441010,245.585678 141.678711,239.969574 146.252197,232.842590 
	C164.940216,203.720596 191.031647,185.823090 225.039566,179.915085 
	C271.770844,171.796692 320.741882,196.301987 342.510834,238.067139 
	C344.342804,241.581879 344.390656,244.400986 342.464935,247.824570 
	C323.657654,281.260681 295.382507,300.838989 257.401733,306.453217 
	C253.096054,307.089661 248.815811,307.446533 243.987854,307.368500 
M281.304230,271.709778 
	C271.143005,284.926331 257.552856,291.789581 241.066376,291.012085 
	C222.334412,290.128754 208.070786,280.892242 199.778870,263.875824 
	C191.491562,246.868912 193.275650,230.330322 203.891479,214.689621 
	C205.047333,212.986664 207.011703,211.610214 206.785110,209.210815 
	C205.553009,207.942108 204.232224,208.364014 202.974335,208.743073 
	C183.938477,214.479507 167.112762,223.768188 153.873840,238.974106 
	C151.436111,241.774033 150.796631,244.314636 152.901474,247.457092 
	C154.198135,249.392899 155.233109,251.510956 156.598434,253.392746 
	C182.789078,289.490601 218.311783,304.446381 262.004272,297.252502 
	C292.819946,292.178741 316.459625,274.985413 332.671600,247.970215 
	C334.829224,244.374786 334.512726,241.769028 331.763428,238.657913 
	C318.417114,223.555145 301.548859,214.329971 282.511169,208.637589 
	C281.191467,208.242966 279.594330,207.551727 278.307831,209.515121 
	C293.712036,229.176102 295.833069,249.742111 281.304230,271.709778 
M262.332520,208.154175 
	C233.657578,192.723648 201.676376,214.790390 203.184128,244.989273 
	C204.321396,267.767609 227.124451,286.658447 249.488235,282.151459 
	C267.236664,278.574615 278.973877,266.650391 282.306946,248.809891 
	C285.140808,233.641388 277.606171,217.937454 262.332520,208.154175 
M299.895752,203.779663 
	C261.988312,177.465683 207.470535,185.102921 184.790085,205.684570 
	C187.095840,205.889191 189.006287,204.759781 191.012390,204.029099 
	C222.345169,192.616898 254.015121,191.708847 285.987091,201.049835 
	C290.292297,202.307663 294.475433,203.979401 298.752838,205.340942 
	C299.327179,205.523758 301.578278,206.791397 299.895752,203.779663 
z"/>
</svg>